<?xml version="1.0" encoding="UTF-8" standalone="no"?>

<svg viewBox="0 0 12 3" version="1.1" xmlns="http://www.w3.org/2000/svg" xmlns:svg="http://www.w3.org/2000/svg">
  <style>
    path, circle {
      fill: #383838;
      stroke: #383838;
    }

    @media (prefers-color-scheme: dark) {
      path, circle {
        fill: #dedede;
        stroke: #dedede;
      }
    }

    @media (prefers-color-scheme: light) {
      path, circle {
        fill: #1d1d1d;
        stroke: #1d1d1d;
      }
    }
  </style>
  <g>
   <path
     style="stroke-width:0;stroke-linecap:butt;stroke-linejoin:miter;stroke-opacity:1;stroke-miterlimit:4;stroke-dasharray:none;fill-opacity:1"
     d="M 0,0 V 1 3 H 5 V 0 H 4 V 2 H 3 V 1 H 2 V 2 H 1 V 1 0 H 0 v 0 0" />
   <path
     style="stroke-width:0;stroke-linecap:butt;stroke-linejoin:miter;stroke-opacity:1;fill-opacity:1;stroke-miterlimit:4;stroke-dasharray:none"
     d="M 10,2 H 7 V 3 H 10 V 2" />
   <path
     style="fill-opacity:1;stroke-width:0;stroke-linecap:butt;stroke-linejoin:miter;stroke-miterlimit:4;stroke-dasharray:none;stroke-opacity:1"
     d="m 9.4,0.2 -2.4,1.8 0.6,0.8 2.4,-1.8 -0.6,-0.8" />
   <circle
     style="fill-opacity:1;stroke-width:0;stroke-miterlimit:4;stroke-dasharray:none"
     cx="10.5"
     cy="2.5"
     r="0.5" />
   <path
     style="stroke-width:0;stroke-linecap:butt;stroke-linejoin:miter;stroke-opacity:1;stroke-miterlimit:4;stroke-dasharray:none;fill-opacity:1"
     d="M 10,1 11,0 h 1 v 3 h -1 V 1 H 10" />
   <path
     style="fill-opacity:1;stroke-width:0;stroke-linecap:butt;stroke-linejoin:miter;stroke-miterlimit:4;stroke-dasharray:none;stroke-opacity:1"
     d="M 6,0 4.2111457,0.89442716 4.6583593,1.7888543 6.4472134,0.89442706 6,0" />
   <path
     style="stroke-width:0;stroke-linecap:butt;stroke-linejoin:miter;stroke-opacity:1;fill-opacity:1;stroke-miterlimit:4;stroke-dasharray:none"
     d="M 6,0 V 1 H 10 V 0 H 6" />
  </g>
</svg>
